<svg xmlns="http://www.w3.org/2000/svg" viewBox="0 0 512 512" width="512" height="512">
  <defs>
    <linearGradient id="bg" x1="0" y1="0" x2="0" y2="1">
      <stop offset="0" stop-color="#2c2c2e"/>
      <stop offset="1" stop-color="#000000"/>
    </linearGradient>
  </defs>
  <rect width="512" height="512" fill="url(#bg)"/>
  <!-- display -->
  <rect x="96" y="86" width="320" height="64" rx="14" fill="#1c1c1e"/>
  <text x="398" y="134" text-anchor="end" font-family="-apple-system, Helvetica, Arial, sans-serif" font-size="44" font-weight="300" fill="#e6e6ea">0</text>
  <!-- buttons -->
  <g>
    <!-- numbers (grey) -->
    <circle cx="136" cy="214" r="30" fill="#333333"/>
    <circle cx="216" cy="214" r="30" fill="#333333"/>
    <circle cx="296" cy="214" r="30" fill="#333333"/>
    <circle cx="136" cy="294" r="30" fill="#333333"/>
    <circle cx="216" cy="294" r="30" fill="#333333"/>
    <circle cx="296" cy="294" r="30" fill="#333333"/>
    <circle cx="136" cy="374" r="30" fill="#333333"/>
    <circle cx="216" cy="374" r="30" fill="#333333"/>
    <circle cx="296" cy="374" r="30" fill="#333333"/>
    <!-- wide zero -->
    <rect x="106" y="424" width="140" height="60" rx="30" fill="#333333"/>
    <circle cx="296" cy="454" r="30" fill="#333333"/>
    <!-- operator column (orange) -->
    <circle cx="376" cy="214" r="30" fill="#ff9f0a"/>
    <circle cx="376" cy="294" r="30" fill="#ff9f0a"/>
    <circle cx="376" cy="374" r="30" fill="#ff9f0a"/>
    <circle cx="376" cy="454" r="30" fill="#ff9f0a"/>
  </g>
</svg>
