<svg xmlns="http://www.w3.org/2000/svg" viewBox="0 0 512 512" width="512" height="512">
  <defs>
    <radialGradient id="bg" cx="50%" cy="38%" r="75%">
      <stop offset="0" stop-color="#063425"/><stop offset="1" stop-color="#000000"/>
    </radialGradient>
  </defs>
  <rect width="512" height="512" fill="url(#bg)"/>
  <!-- face oval -->
  <ellipse cx="256" cy="248" rx="118" ry="150" fill="none" stroke="#2bff9a" stroke-width="6" opacity="0.95"/>
  <!-- mesh hints -->
  <g stroke="#2bff9a" stroke-width="2.5" opacity="0.5" fill="none">
    <path d="M150 210 L256 188 L362 210"/>
    <path d="M168 300 L256 280 L344 300"/>
    <path d="M256 188 L256 300"/>
    <path d="M150 210 L168 300"/>
    <path d="M362 210 L344 300"/>
    <path d="M200 250 L312 250"/>
  </g>
  <!-- eyes + mouth -->
  <g fill="#2bff9a">
    <circle cx="206" cy="232" r="11"/><circle cx="306" cy="232" r="11"/>
  </g>
  <path d="M212 318 q44 28 88 0" fill="none" stroke="#2bff9a" stroke-width="7" stroke-linecap="round"/>
  <!-- landmark dots -->
  <g fill="#2bff9a" opacity="0.85">
    <circle cx="150" cy="210" r="6"/><circle cx="362" cy="210" r="6"/>
    <circle cx="168" cy="300" r="6"/><circle cx="344" cy="300" r="6"/>
    <circle cx="256" cy="158" r="6"/><circle cx="256" cy="372" r="6"/>
  </g>
  <!-- scan line -->
  <rect x="138" y="250" width="236" height="5" rx="2.5" fill="#2bff9a" opacity="0.9"/>
</svg>
